<svg width="16" height="17" viewBox="0 0 16 17" fill="none" xmlns="http://www.w3.org/2000/svg">
<path d="M5.44216 3.69391H5.32396C5.38897 3.69391 5.44216 3.64072 5.44216 3.57571V3.69391H9.9337V3.57571C9.9337 3.64072 9.98689 3.69391 10.0519 3.69391H9.9337V4.7577H10.9975V3.57571C10.9975 3.05416 10.5734 2.63013 10.0519 2.63013H5.32396C4.80241 2.63013 4.37837 3.05416 4.37837 3.57571V4.7577H5.44216V3.69391ZM12.8887 4.7577H2.4872C2.22568 4.7577 2.0144 4.96898 2.0144 5.23049V5.70329C2.0144 5.7683 2.06759 5.82149 2.1326 5.82149H3.025L3.38994 13.5487C3.41358 14.0525 3.83023 14.45 4.33405 14.45H11.0418C11.5471 14.45 11.9623 14.054 11.9859 13.5487L12.3509 5.82149H13.2433C13.3083 5.82149 13.3615 5.7683 13.3615 5.70329V5.23049C13.3615 4.96898 13.1502 4.7577 12.8887 4.7577ZM10.928 13.3862H4.44782L4.09026 5.82149H11.2856L10.928 13.3862Z" fill="#E40101"/>
</svg>
