<svg width="15" height="15" viewBox="0 0 15 15" fill="none" xmlns="http://www.w3.org/2000/svg">
<g clip-path="url(#clip0)">
<path d="M10.0257 2.00308C10.1762 1.85256 10.3549 1.73316 10.5516 1.65171C10.7482 1.57025 10.959 1.52832 11.1719 1.52832C11.3847 1.52832 11.5955 1.57025 11.7922 1.65171C11.9888 1.73316 12.1675 1.85256 12.318 2.00308C12.4685 2.15359 12.5879 2.33228 12.6694 2.52894C12.7509 2.7256 12.7928 2.93638 12.7928 3.14924C12.7928 3.36211 12.7509 3.57289 12.6694 3.76955C12.5879 3.96621 12.4685 4.14489 12.318 4.29541L4.5814 12.032L1.42944 12.8917L2.28907 9.7397L10.0257 2.00308Z" stroke="#8D8C8C" stroke-width="1.14617" stroke-linecap="round" stroke-linejoin="round"/>
</g>
<defs>
<clipPath id="clip0">
<rect width="13.754" height="13.754" fill="white" transform="translate(0.283936 0.283936)"/>
</clipPath>
</defs>
</svg>
