<svg width="52" height="13" viewBox="0 0 52 13" fill="none" xmlns="http://www.w3.org/2000/svg">
<path d="M4.51825 11.0535C3.82314 11.0535 3.19486 10.8931 2.63342 10.5722C2.08089 10.2425 1.63976 9.79692 1.31003 9.23548C0.989203 8.67404 0.828792 8.0413 0.828792 7.33727C0.828792 6.63325 0.975836 6.00497 1.26992 5.45244C1.57292 4.891 1.98286 4.44987 2.49974 4.12905C3.01662 3.79931 3.60034 3.63445 4.2509 3.63445C4.77669 3.63445 5.26238 3.74584 5.70797 3.96864C6.15356 4.18252 6.52785 4.47661 6.83085 4.8509V1.24165C6.83085 1.03668 6.89323 0.871808 7.018 0.747044C7.15167 0.622279 7.31654 0.559897 7.5126 0.559897C7.71757 0.559897 7.88243 0.622279 8.0072 0.747044C8.13196 0.871808 8.19434 1.03668 8.19434 1.24165V7.33727C8.19434 8.0413 8.02948 8.67404 7.69974 9.23548C7.37892 9.79692 6.94225 10.2425 6.38972 10.5722C5.83719 10.8931 5.21337 11.0535 4.51825 11.0535ZM4.51825 9.85039C4.97275 9.85039 5.37824 9.74344 5.7347 9.52956C6.09117 9.30677 6.37189 9.00377 6.57686 8.62057C6.78183 8.23736 6.88432 7.8096 6.88432 7.33727C6.88432 6.85604 6.78183 6.42828 6.57686 6.05398C6.37189 5.67969 6.09117 5.3856 5.7347 5.17172C5.37824 4.94893 4.97275 4.83753 4.51825 4.83753C4.07267 4.83753 3.66718 4.94893 3.3018 5.17172C2.94533 5.3856 2.66015 5.67969 2.44627 6.05398C2.2413 6.42828 2.13882 6.85604 2.13882 7.33727C2.13882 7.8096 2.2413 8.23736 2.44627 8.62057C2.66015 9.00377 2.94533 9.30677 3.3018 9.52956C3.66718 9.74344 4.07267 9.85039 4.51825 9.85039ZM14.6392 11.0535C13.8995 11.0535 13.2401 10.8975 12.6608 10.5856C12.0904 10.2648 11.6404 9.82811 11.3107 9.27558C10.9898 8.71414 10.8294 8.07249 10.8294 7.35064C10.8294 6.61988 10.9809 5.97823 11.2839 5.42571C11.5958 4.86427 12.0236 4.42759 12.5672 4.11568C13.1108 3.79486 13.7347 3.63445 14.4387 3.63445C15.1338 3.63445 15.7309 3.7904 16.2299 4.10231C16.729 4.40531 17.1078 4.82862 17.3662 5.37224C17.6335 5.90694 17.7672 6.52631 17.7672 7.23033C17.7672 7.39966 17.7093 7.54225 17.5934 7.6581C17.4776 7.76504 17.3305 7.81851 17.1523 7.81851H12.0726C12.1707 8.43342 12.4514 8.93693 12.9148 9.32905C13.3871 9.71225 13.9619 9.90386 14.6392 9.90386C14.9155 9.90386 15.1962 9.85484 15.4814 9.75681C15.7755 9.64987 16.0116 9.52956 16.1898 9.39589C16.3235 9.29786 16.4661 9.24884 16.6176 9.24884C16.778 9.23993 16.9162 9.28449 17.032 9.38252C17.1835 9.5162 17.2637 9.66324 17.2726 9.82365C17.2815 9.98406 17.2102 10.1222 17.0587 10.238C16.7557 10.4787 16.377 10.6747 15.9225 10.8262C15.4769 10.9777 15.0491 11.0535 14.6392 11.0535ZM14.4387 4.78406C13.7792 4.78406 13.249 4.96675 12.8479 5.33213C12.4469 5.69751 12.1929 6.16984 12.086 6.7491H16.5374C16.4572 6.17875 16.2389 5.71088 15.8824 5.3455C15.5259 4.97121 15.0447 4.78406 14.4387 4.78406ZM23.1619 11.0535C22.4489 11.0535 21.8118 10.8931 21.2503 10.5722C20.6978 10.2425 20.2611 9.80137 19.9403 9.24884C19.6284 8.6874 19.4724 8.05467 19.4724 7.35064C19.4724 6.62879 19.6284 5.98715 19.9403 5.42571C20.2522 4.86427 20.68 4.42759 21.2236 4.11568C21.7672 3.79486 22.391 3.63445 23.0951 3.63445C24.1466 3.63445 25.02 4.03548 25.7151 4.83753C25.8399 4.98012 25.8844 5.12716 25.8488 5.27866C25.8131 5.43016 25.7151 5.56384 25.5547 5.67969C25.4299 5.76881 25.2918 5.8 25.1403 5.77326C24.9888 5.73762 24.8507 5.65741 24.7259 5.53265C24.2892 5.06924 23.7456 4.83753 23.0951 4.83753C22.4088 4.83753 21.8519 5.06924 21.4241 5.53265C20.9963 5.98715 20.7825 6.59314 20.7825 7.35064C20.7825 7.83188 20.8805 8.25964 21.0765 8.63393C21.2815 9.00823 21.5622 9.30677 21.9187 9.52956C22.2752 9.74344 22.6896 9.85039 23.1619 9.85039C23.7679 9.85039 24.258 9.69443 24.6323 9.38252C24.7749 9.26667 24.922 9.20428 25.0735 9.19537C25.225 9.17755 25.3586 9.21765 25.4745 9.31568C25.626 9.44045 25.7106 9.58303 25.7285 9.74344C25.7463 9.89494 25.6928 10.0331 25.5681 10.1578C24.9264 10.7549 24.1244 11.0535 23.1619 11.0535ZM31.7918 11.0535C31.07 11.0535 30.4328 10.8975 29.8803 10.5856C29.3277 10.2648 28.8911 9.82811 28.5702 9.27558C28.2583 8.71414 28.1024 8.07249 28.1024 7.35064C28.1024 6.61988 28.2583 5.97823 28.5702 5.42571C28.8911 4.86427 29.3277 4.42759 29.8803 4.11568C30.4328 3.79486 31.07 3.63445 31.7918 3.63445C32.5048 3.63445 33.1375 3.79486 33.69 4.11568C34.2426 4.42759 34.6748 4.86427 34.9867 5.42571C35.3075 5.97823 35.4679 6.61988 35.4679 7.35064C35.4679 8.07249 35.312 8.71414 35.0001 9.27558C34.6881 9.82811 34.2559 10.2648 33.7034 10.5856C33.1509 10.8975 32.5137 11.0535 31.7918 11.0535ZM31.7918 9.85039C32.2552 9.85039 32.6652 9.74344 33.0216 9.52956C33.3781 9.31568 33.6544 9.02159 33.8504 8.6473C34.0554 8.27301 34.1579 7.84079 34.1579 7.35064C34.1579 6.8605 34.0554 6.42828 33.8504 6.05398C33.6544 5.67078 33.3781 5.37224 33.0216 5.15835C32.6652 4.94447 32.2552 4.83753 31.7918 4.83753C31.3284 4.83753 30.9185 4.94447 30.562 5.15835C30.2055 5.37224 29.9248 5.67078 29.7198 6.05398C29.5149 6.42828 29.4124 6.8605 29.4124 7.35064C29.4124 7.84079 29.5149 8.27301 29.7198 8.6473C29.9248 9.02159 30.2055 9.31568 30.562 9.52956C30.9185 9.74344 31.3284 9.85039 31.7918 9.85039ZM38.7671 11C38.3215 11 38.0987 10.7772 38.0987 10.3316V4.3563C38.0987 3.91071 38.3215 3.68792 38.7671 3.68792C39.2127 3.68792 39.4355 3.91071 39.4355 4.3563V4.61028C39.7028 4.29837 40.0281 4.0533 40.4113 3.87506C40.8034 3.69683 41.2268 3.60771 41.6812 3.60771C42.216 3.60771 42.6125 3.69683 42.871 3.87506C43.1383 4.04439 43.2408 4.24936 43.1784 4.48997C43.1339 4.67712 43.0447 4.80189 42.9111 4.86427C42.7774 4.91774 42.6214 4.92665 42.4432 4.891C41.8729 4.77515 41.3604 4.76624 40.9059 4.86427C40.4514 4.9623 40.0905 5.14499 39.8232 5.41234C39.5647 5.67969 39.4355 6.01834 39.4355 6.42828V10.3316C39.4355 10.7772 39.2127 11 38.7671 11ZM48.1016 11.0535C47.3619 11.0535 46.7024 10.8975 46.1232 10.5856C45.5528 10.2648 45.1028 9.82811 44.773 9.27558C44.4522 8.71414 44.2918 8.07249 44.2918 7.35064C44.2918 6.61988 44.4433 5.97823 44.7463 5.42571C45.0582 4.86427 45.486 4.42759 46.0296 4.11568C46.5732 3.79486 47.197 3.63445 47.9011 3.63445C48.5962 3.63445 49.1933 3.7904 49.6923 4.10231C50.1914 4.40531 50.5701 4.82862 50.8286 5.37224C51.0959 5.90694 51.2296 6.52631 51.2296 7.23033C51.2296 7.39966 51.1717 7.54225 51.0558 7.6581C50.94 7.76504 50.7929 7.81851 50.6147 7.81851H45.535C45.633 8.43342 45.9137 8.93693 46.3771 9.32905C46.8495 9.71225 47.4243 9.90386 48.1016 9.90386C48.3778 9.90386 48.6585 9.85484 48.9437 9.75681C49.2378 9.64987 49.474 9.52956 49.6522 9.39589C49.7859 9.29786 49.9285 9.24884 50.08 9.24884C50.2404 9.23993 50.3785 9.28449 50.4944 9.38252C50.6459 9.5162 50.7261 9.66324 50.735 9.82365C50.7439 9.98406 50.6726 10.1222 50.5211 10.238C50.2181 10.4787 49.8394 10.6747 49.3849 10.8262C48.9393 10.9777 48.5115 11.0535 48.1016 11.0535ZM47.9011 4.78406C47.2416 4.78406 46.7113 4.96675 46.3103 5.33213C45.9093 5.69751 45.6553 6.16984 45.5484 6.7491H49.9998C49.9196 6.17875 49.7012 5.71088 49.3448 5.3455C48.9883 4.97121 48.507 4.78406 47.9011 4.78406Z" fill="white"/>
<path d="M2.63342 10.5722L2.49639 10.8019L2.50078 10.8044L2.63342 10.5722ZM1.31003 9.23548L1.07788 9.36813L1.07949 9.37087L1.31003 9.23548ZM1.26992 5.45244L1.03464 5.32547L1.03392 5.32683L1.26992 5.45244ZM2.49974 4.12905L2.64075 4.35622L2.64353 4.35444L2.49974 4.12905ZM5.70797 3.96864L5.58839 4.2078L5.59228 4.20966L5.70797 3.96864ZM6.83085 4.8509L6.62305 5.01912L7.0982 5.60607V4.8509H6.83085ZM7.018 0.747044L6.83547 0.551478L6.82895 0.557997L7.018 0.747044ZM8.0072 0.747044L8.19624 0.557997L8.0072 0.747044ZM7.69974 9.23548L7.46919 9.10007L7.46762 9.10283L7.69974 9.23548ZM6.38972 10.5722L6.52397 10.8035L6.52672 10.8018L6.38972 10.5722ZM5.7347 9.52956L5.87228 9.75885L5.8764 9.75628L5.7347 9.52956ZM6.57686 8.62057L6.34112 8.49447L6.34112 8.49447L6.57686 8.62057ZM6.57686 6.05398L6.34237 6.1824L6.34237 6.1824L6.57686 6.05398ZM5.7347 5.17172L5.59298 5.39847L5.59715 5.40097L5.7347 5.17172ZM3.3018 5.17172L3.43935 5.40098L3.44099 5.39999L3.3018 5.17172ZM2.44627 6.05398L2.21411 5.92132L2.21178 5.92557L2.44627 6.05398ZM2.44627 8.62057L2.21049 8.74668L2.21282 8.75086L2.44627 8.62057ZM3.3018 9.52956L3.16004 9.75637L3.16674 9.76029L3.3018 9.52956ZM4.51825 10.7861C3.86606 10.7861 3.28409 10.6361 2.76606 10.3401L2.50078 10.8044C3.10563 11.15 3.78021 11.3208 4.51825 11.3208V10.7861ZM2.77043 10.3427C2.25697 10.0362 1.84782 9.62325 1.54056 9.10008L1.07949 9.37087C1.43171 9.97058 1.90481 10.4488 2.49641 10.8018L2.77043 10.3427ZM1.54215 9.10283C1.24643 8.58532 1.09614 7.99903 1.09614 7.33727H0.56144C0.56144 8.08358 0.731972 8.76275 1.0779 9.36812L1.54215 9.10283ZM1.09614 7.33727C1.09614 6.67151 1.23488 6.0873 1.50593 5.57806L1.03392 5.32683C0.716793 5.92264 0.56144 6.59498 0.56144 7.33727H1.09614ZM1.5052 5.57942C1.78717 5.05694 2.16544 4.65121 2.64073 4.3562L2.35875 3.9019C1.80028 4.24853 1.35868 4.72506 1.03465 5.32547L1.5052 5.57942ZM2.64353 4.35444C3.11479 4.05381 3.64803 3.9018 4.2509 3.9018V3.3671C3.55265 3.3671 2.91846 3.54482 2.35596 3.90365L2.64353 4.35444ZM4.2509 3.9018C4.73755 3.9018 5.182 4.00456 5.58841 4.20776L5.82753 3.72951C5.34277 3.48713 4.81583 3.3671 4.2509 3.3671V3.9018ZM5.59228 4.20966C6.00312 4.40686 6.34565 4.67644 6.62305 5.01912L7.03865 4.68268C6.71005 4.27677 6.30399 3.95817 5.82366 3.72761L5.59228 4.20966ZM7.0982 4.8509V1.24165H6.5635V4.8509H7.0982ZM7.0982 1.24165C7.0982 1.09519 7.14055 1.00258 7.20704 0.93609L6.82895 0.557997C6.64591 0.741032 6.5635 0.978163 6.5635 1.24165H7.0982ZM7.20041 0.942493C7.2808 0.867462 7.3789 0.827249 7.5126 0.827249V0.292545C7.25417 0.292545 7.02254 0.377096 6.83558 0.551594L7.20041 0.942493ZM7.5126 0.827249C7.65905 0.827249 7.75166 0.869596 7.81815 0.93609L8.19624 0.557997C8.01321 0.374962 7.77608 0.292545 7.5126 0.292545V0.827249ZM7.81815 0.93609C7.88465 1.00258 7.92699 1.09519 7.92699 1.24165H8.4617C8.4617 0.978163 8.37928 0.741032 8.19624 0.557997L7.81815 0.93609ZM7.92699 1.24165V7.33727H8.4617V1.24165H7.92699ZM7.92699 7.33727C7.92699 7.9977 7.77289 8.58301 7.46921 9.10008L7.93028 9.37087C8.28607 8.76506 8.4617 8.08491 8.4617 7.33727H7.92699ZM7.46762 9.10283C7.16951 9.62452 6.76551 10.0366 6.25271 10.3427L6.52672 10.8018C7.11898 10.4484 7.58833 9.96931 7.93187 9.36812L7.46762 9.10283ZM6.25547 10.341C5.74727 10.6361 5.17049 10.7861 4.51825 10.7861V11.3208C5.25625 11.3208 5.92711 11.15 6.52396 10.8034L6.25547 10.341ZM4.51825 10.1177C5.01654 10.1177 5.47041 9.99992 5.87226 9.75882L5.59715 9.30031C5.28606 9.48696 4.92896 9.58303 4.51825 9.58303V10.1177ZM5.8764 9.75628C6.27384 9.50787 6.58639 9.16959 6.81261 8.74666L6.34112 8.49447C6.15739 8.83795 5.9085 9.10566 5.59301 9.30285L5.8764 9.75628ZM6.81261 8.74666C7.0401 8.32136 7.15167 7.84968 7.15167 7.33727H6.61697C6.61697 7.76952 6.52357 8.15336 6.34112 8.49447L6.81261 8.74666ZM7.15167 7.33727C7.15167 6.81698 7.04052 6.34404 6.81136 5.92557L6.34237 6.1824C6.52315 6.51252 6.61697 6.89511 6.61697 7.33727H7.15167ZM6.81136 5.92557C6.58423 5.51081 6.27053 5.18144 5.87226 4.94247L5.59715 5.40097C5.91182 5.58977 6.15956 5.84857 6.34237 6.1824L6.81136 5.92557ZM5.8764 4.94501C5.47399 4.6935 5.01863 4.57018 4.51825 4.57018V5.10488C4.92687 5.10488 5.28248 5.20436 5.59301 5.39844L5.8764 4.94501ZM4.51825 4.57018C4.02568 4.57018 3.5717 4.69402 3.16261 4.94346L3.44099 5.39999C3.76267 5.20384 4.11965 5.10488 4.51825 5.10488V4.57018ZM3.16425 4.94247C2.76701 5.18081 2.44988 5.50881 2.21415 5.92134L2.6784 6.18663C2.87043 5.85058 3.12365 5.5904 3.43935 5.40097L3.16425 4.94247ZM2.21178 5.92557C1.98262 6.34404 1.87147 6.81698 1.87147 7.33727H2.40617C2.40617 6.89511 2.49999 6.51252 2.68077 6.1824L2.21178 5.92557ZM1.87147 7.33727C1.87147 7.84968 1.98304 8.32136 2.21053 8.74666L2.68202 8.49447C2.49957 8.15337 2.40617 7.76952 2.40617 7.33727H1.87147ZM2.21282 8.75086C2.44767 9.17163 2.7637 9.50853 3.1601 9.75628L3.4435 9.30285C3.12696 9.10501 2.87264 8.83591 2.67972 8.49027L2.21282 8.75086ZM3.16674 9.76029C3.57527 9.99943 4.02778 10.1177 4.51825 10.1177V9.58303C4.11755 9.58303 3.75909 9.48746 3.43686 9.29883L3.16674 9.76029ZM12.6608 10.5856L12.5297 10.8187L12.534 10.821L12.6608 10.5856ZM11.3107 9.27558L11.0785 9.40825L11.0811 9.41258L11.3107 9.27558ZM11.2839 5.42571L11.0502 5.29587L11.0495 5.29716L11.2839 5.42571ZM12.5672 4.11568L12.7003 4.34759L12.7031 4.34593L12.5672 4.11568ZM16.2299 4.10231L16.0882 4.32905L16.0912 4.33084L16.2299 4.10231ZM17.3662 5.37224L17.1247 5.48705L17.1271 5.4918L17.3662 5.37224ZM17.5934 7.6581L17.7749 7.85471L17.7825 7.84714L17.5934 7.6581ZM12.0726 7.81851V7.55116H11.7593L11.8086 7.8606L12.0726 7.81851ZM12.9148 9.32905L12.7421 9.53319L12.7463 9.53666L12.9148 9.32905ZM15.4814 9.75681L15.5683 10.0097L15.5727 10.0081L15.4814 9.75681ZM16.1898 9.39589L16.0317 9.18028L16.0294 9.18201L16.1898 9.39589ZM16.6176 9.24884V9.5162H16.625L16.6324 9.51578L16.6176 9.24884ZM17.032 9.38252L17.2089 9.18201L17.2047 9.17843L17.032 9.38252ZM17.2726 9.82365L17.5396 9.80882L17.5396 9.80882L17.2726 9.82365ZM17.0587 10.238L16.8963 10.0256L16.8925 10.0287L17.0587 10.238ZM15.9225 10.8262L15.8379 10.5726L15.8364 10.5731L15.9225 10.8262ZM12.086 6.7491L11.8231 6.70056L11.7648 7.01645H12.086V6.7491ZM16.5374 6.7491V7.01645H16.845L16.8022 6.71187L16.5374 6.7491ZM15.8824 5.3455L15.6888 5.5299L15.691 5.5322L15.8824 5.3455ZM14.6392 10.7861C13.9382 10.7861 13.3232 10.6386 12.7875 10.3502L12.534 10.821C13.1569 11.1564 13.8609 11.3208 14.6392 11.3208V10.7861ZM12.7919 10.3526C12.2614 10.0542 11.8457 9.65034 11.5402 9.13857L11.0811 9.41258C11.4351 10.0059 11.9195 10.4753 12.5297 10.8186L12.7919 10.3526ZM11.5428 9.14293C11.2477 8.62644 11.0968 8.0315 11.0968 7.35064H10.5621C10.5621 8.11349 10.732 8.80184 11.0785 9.40822L11.5428 9.14293ZM11.0968 7.35064C11.0968 6.65759 11.2402 6.0615 11.5184 5.55426L11.0495 5.29716C10.7217 5.89497 10.5621 6.58217 10.5621 7.35064H11.0968ZM11.5176 5.55554C11.8065 5.03554 12.2 4.63464 12.7003 4.34757L12.4342 3.88379C11.8473 4.22054 11.3852 4.69299 11.0502 5.29587L11.5176 5.55554ZM12.7031 4.34593C13.201 4.05212 13.7768 3.9018 14.4387 3.9018V3.3671C13.6925 3.3671 13.0207 3.5376 12.4313 3.88543L12.7031 4.34593ZM14.4387 3.9018C15.0929 3.9018 15.6389 4.04816 16.0883 4.32903L16.3716 3.8756C15.8229 3.53265 15.1747 3.3671 14.4387 3.3671V3.9018ZM16.0912 4.33084C16.5442 4.60589 16.888 4.98899 17.1247 5.48703L17.6077 5.25745C17.3275 4.66825 16.9138 4.20474 16.3687 3.87378L16.0912 4.33084ZM17.1271 5.4918C17.3728 5.98333 17.4999 6.56047 17.4999 7.23033H18.0346C18.0346 6.49214 17.8943 5.83055 17.6053 5.25267L17.1271 5.4918ZM17.4999 7.23033C17.4999 7.3314 17.4683 7.40518 17.4044 7.46905L17.7825 7.84714C17.9503 7.67931 18.0346 7.46791 18.0346 7.23033H17.4999ZM17.4121 7.46165C17.3522 7.51698 17.2728 7.55116 17.1523 7.55116V8.08586C17.3883 8.08586 17.603 8.0131 17.7748 7.85455L17.4121 7.46165ZM17.1523 7.55116H12.0726V8.08586H17.1523V7.55116ZM11.8086 7.8606C11.9164 8.53692 12.2285 9.09854 12.7421 9.53314L13.0875 9.12496C12.6743 8.77532 12.4249 8.32992 12.3366 7.77642L11.8086 7.8606ZM12.7463 9.53666C13.2717 9.96293 13.908 10.1712 14.6392 10.1712V9.6365C14.0158 9.6365 13.5025 9.46157 13.0832 9.12143L12.7463 9.53666ZM14.6392 10.1712C14.9476 10.1712 15.2577 10.1164 15.5683 10.0096L15.3945 9.50398C15.1347 9.59327 14.8833 9.6365 14.6392 9.6365V10.1712ZM15.5727 10.0081C15.8824 9.89547 16.1444 9.76418 16.3503 9.60977L16.0294 9.18201C15.8788 9.29495 15.6685 9.40427 15.39 9.50556L15.5727 10.0081ZM16.3479 9.61148C16.4403 9.54374 16.5284 9.5162 16.6176 9.5162V8.98149C16.4038 8.98149 16.2067 9.05197 16.0317 9.18029L16.3479 9.61148ZM16.6324 9.51578C16.729 9.51042 16.7989 9.5355 16.8593 9.58661L17.2047 9.17843C17.0334 9.03348 16.827 8.96944 16.6028 8.9819L16.6324 9.51578ZM16.8551 9.58299C16.9676 9.68221 17.0017 9.76685 17.0057 9.83848L17.5396 9.80882C17.5257 9.55963 17.3994 9.35018 17.2089 9.18205L16.8551 9.58299ZM17.0057 9.83848C17.0087 9.89309 16.9926 9.95203 16.8963 10.0257L17.2211 10.4504C17.4278 10.2924 17.5544 10.075 17.5396 9.80882L17.0057 9.83848ZM16.8925 10.0287C16.619 10.2459 16.2696 10.4287 15.8379 10.5726L16.007 11.0799C16.4844 10.9207 16.8925 10.7114 17.225 10.4474L16.8925 10.0287ZM15.8364 10.5731C15.4145 10.7165 15.0159 10.7861 14.6392 10.7861V11.3208C15.0824 11.3208 15.5393 11.2389 16.0086 11.0793L15.8364 10.5731ZM14.4387 4.51671C13.7277 4.51671 13.1283 4.71504 12.6679 5.13451L13.028 5.52976C13.3697 5.21846 13.8307 5.05141 14.4387 5.05141V4.51671ZM12.6679 5.13451C12.2199 5.54264 11.9397 6.06911 11.8231 6.70056L12.3489 6.79764C12.4462 6.27056 12.6739 5.85239 13.028 5.52976L12.6679 5.13451ZM12.086 7.01645H16.5374V6.48175H12.086V7.01645ZM16.8022 6.71187C16.7151 6.09271 16.475 5.57007 16.0738 5.1588L15.691 5.5322C16.0027 5.8517 16.1993 6.26478 16.2727 6.78633L16.8022 6.71187ZM16.076 5.16112C15.6603 4.72468 15.1041 4.51671 14.4387 4.51671V5.05141C14.9852 5.05141 15.3915 5.21774 15.6888 5.52988L16.076 5.16112ZM21.2503 10.5722L21.1133 10.8019L21.1177 10.8044L21.2503 10.5722ZM19.9403 9.24884L19.7065 9.3787L19.7091 9.38309L19.9403 9.24884ZM19.9403 5.42571L19.7066 5.29587L19.7066 5.29587L19.9403 5.42571ZM21.2236 4.11568L21.3566 4.34759L21.3595 4.34593L21.2236 4.11568ZM25.7151 4.83753L25.5131 5.01263L25.5139 5.01358L25.7151 4.83753ZM25.8488 5.27866L25.5885 5.21743L25.5885 5.21743L25.8488 5.27866ZM25.5547 5.67969L25.7101 5.89725L25.7112 5.89643L25.5547 5.67969ZM25.1403 5.77326L25.0791 6.03351L25.0864 6.03524L25.0938 6.03655L25.1403 5.77326ZM24.7259 5.53265L24.5312 5.71608L24.5369 5.72169L24.7259 5.53265ZM21.4241 5.53265L21.6188 5.71589L21.6206 5.71399L21.4241 5.53265ZM21.0765 8.63393L20.8397 8.75801L20.842 8.76235L21.0765 8.63393ZM21.9187 9.52956L21.777 9.75631L21.7811 9.75882L21.9187 9.52956ZM24.6323 9.38252L24.4637 9.17501L24.4612 9.17713L24.6323 9.38252ZM25.0735 9.19537L25.0892 9.46226L25.0969 9.46181L25.1047 9.46089L25.0735 9.19537ZM25.4745 9.31568L25.3018 9.51979L25.3045 9.52206L25.4745 9.31568ZM25.7285 9.74344L25.4627 9.77297L25.4629 9.77468L25.7285 9.74344ZM25.5681 10.1578L25.7503 10.3537L25.7571 10.3469L25.5681 10.1578ZM23.1619 10.7861C22.4906 10.7861 21.9 10.6355 21.383 10.3401L21.1177 10.8044C21.7236 11.1506 22.4073 11.3208 23.1619 11.3208V10.7861ZM21.3873 10.3427C20.8735 10.036 20.4694 9.62757 20.1715 9.1146L19.7091 9.38309C20.0529 9.97517 20.5221 10.449 21.1133 10.8018L21.3873 10.3427ZM20.174 9.11901C19.8862 8.60102 19.7398 8.01371 19.7398 7.35064H19.2051C19.2051 8.09563 19.3705 8.77379 19.7066 9.37868L20.174 9.11901ZM19.7398 7.35064C19.7398 6.6685 19.8868 6.07254 20.174 5.55554L19.7066 5.29587C19.37 5.90175 19.2051 6.58909 19.2051 7.35064H19.7398ZM20.174 5.55554C20.4629 5.03554 20.8563 4.63464 21.3566 4.34757L21.0905 3.88379C20.5036 4.22054 20.0415 4.69299 19.7066 5.29587L20.174 5.55554ZM21.3595 4.34593C21.8573 4.05212 22.4332 3.9018 23.0951 3.9018V3.3671C22.3489 3.3671 21.6771 3.5376 21.0877 3.88543L21.3595 4.34593ZM23.0951 3.9018C24.0683 3.9018 24.8682 4.26854 25.5131 5.01263L25.9171 4.66243C25.1718 3.80241 24.225 3.3671 23.0951 3.3671V3.9018ZM25.5139 5.01358C25.5958 5.10717 25.6 5.1686 25.5885 5.21743L26.109 5.3399C26.1688 5.08573 26.0839 4.85307 25.9163 4.66148L25.5139 5.01358ZM25.5885 5.21743C25.5713 5.2908 25.521 5.37426 25.3982 5.46295L25.7112 5.89643C25.9092 5.75342 26.055 5.56953 26.109 5.3399L25.5885 5.21743ZM25.3993 5.46214C25.3332 5.50937 25.2678 5.52429 25.1868 5.50998L25.0938 6.03655C25.3158 6.07571 25.5267 6.02825 25.7101 5.89724L25.3993 5.46214ZM25.2015 5.51302C25.1047 5.49022 25.0094 5.43803 24.9149 5.3436L24.5369 5.72169C24.692 5.8768 24.8729 5.98501 25.0791 6.03351L25.2015 5.51302ZM24.9205 5.3493C24.4321 4.83097 23.8175 4.57018 23.0951 4.57018V5.10488C23.6738 5.10488 24.1464 5.3075 24.5313 5.716L24.9205 5.3493ZM23.0951 4.57018C22.3416 4.57018 21.7108 4.8279 21.2276 5.35131L21.6206 5.71399C21.9929 5.31057 22.4761 5.10488 23.0951 5.10488V4.57018ZM21.2294 5.34941C20.7454 5.86367 20.5151 6.54042 20.5151 7.35064H21.0498C21.0498 6.64587 21.2473 6.11062 21.6188 5.71588L21.2294 5.34941ZM20.5151 7.35064C20.5151 7.86903 20.621 8.34039 20.8397 8.75799L21.3134 8.50988C21.14 8.17889 21.0498 7.79472 21.0498 7.35064H20.5151ZM20.842 8.76235C21.0687 9.17618 21.3811 9.50882 21.777 9.75628L22.0604 9.30285C21.7434 9.10471 21.4944 8.84028 21.311 8.50552L20.842 8.76235ZM21.7811 9.75882C22.1846 10.0009 22.6478 10.1177 23.1619 10.1177V9.58303C22.7313 9.58303 22.3658 9.48601 22.0563 9.30031L21.7811 9.75882ZM23.1619 10.1177C23.8147 10.1177 24.3703 9.94888 24.8035 9.5879L24.4612 9.17713C24.1458 9.43998 23.7211 9.58303 23.1619 9.58303V10.1177ZM24.8009 9.59002C24.9094 9.5019 25.0045 9.46724 25.0892 9.46226L25.0578 8.92848C24.8394 8.94133 24.6405 9.03143 24.4637 9.17502L24.8009 9.59002ZM25.1047 9.46089C25.1831 9.45167 25.2428 9.46986 25.3018 9.51977L25.6472 9.11159C25.4745 8.96544 25.2668 8.90343 25.0422 8.92985L25.1047 9.46089ZM25.3045 9.52206C25.4146 9.61272 25.4542 9.69611 25.4628 9.77297L25.9942 9.71392C25.9671 9.46996 25.8374 9.26817 25.6444 9.1093L25.3045 9.52206ZM25.4629 9.77468C25.4696 9.83158 25.4561 9.89167 25.379 9.96879L25.7571 10.3469C25.9295 10.1745 26.0229 9.95831 25.994 9.71221L25.4629 9.77468ZM25.3859 9.96212C24.7988 10.5085 24.064 10.7861 23.1619 10.7861V11.3208C24.1847 11.3208 25.054 11.0014 25.7502 10.3536L25.3859 9.96212ZM29.8803 10.5856L29.746 10.8168L29.7488 10.8184L29.8803 10.5856ZM28.5702 9.27558L28.3365 9.40544L28.339 9.40983L28.5702 9.27558ZM28.5702 5.42571L28.3381 5.29306L28.3374 5.29428L28.5702 5.42571ZM29.8803 4.11568L30.0117 4.34851L30.0145 4.34688L29.8803 4.11568ZM33.69 4.11568L33.5558 4.3469L33.5586 4.3485L33.69 4.11568ZM34.9867 5.42571L34.7529 5.55557L34.7555 5.55995L34.9867 5.42571ZM35.0001 9.27558L35.2329 9.40701L35.2338 9.40542L35.0001 9.27558ZM33.7034 10.5856L33.8348 10.8184L33.8376 10.8168L33.7034 10.5856ZM33.0216 9.52956L32.8841 9.30031L32.8841 9.30031L33.0216 9.52956ZM33.8504 8.6473L33.6159 8.51887L33.6136 8.52325L33.8504 8.6473ZM33.8504 6.05398L33.6123 6.17581L33.6159 6.1824L33.8504 6.05398ZM33.0216 5.15835L32.8841 5.38761L32.8841 5.38761L33.0216 5.15835ZM30.562 5.15835L30.6996 5.38761L30.6996 5.38761L30.562 5.15835ZM29.7198 6.05398L29.9544 6.1824L29.9556 6.18008L29.7198 6.05398ZM29.7198 8.6473L29.9543 8.51889L29.9543 8.51889L29.7198 8.6473ZM30.562 9.52956L30.4245 9.75882L30.4245 9.75882L30.562 9.52956ZM31.7918 10.7861C31.1096 10.7861 30.5189 10.6391 30.0117 10.3528L29.7488 10.8184C30.3467 11.1559 31.0304 11.3208 31.7918 11.3208V10.7861ZM30.0145 10.3544C29.5022 10.0569 29.0989 9.65366 28.8014 9.14133L28.339 9.40983C28.6832 10.0026 29.1533 10.4726 29.746 10.8168L30.0145 10.3544ZM28.8039 9.14574C28.5167 8.62874 28.3697 8.03279 28.3697 7.35064H27.835C27.835 8.1122 27.9999 8.79954 28.3365 9.40542L28.8039 9.14574ZM28.3697 7.35064C28.3697 6.65886 28.517 6.06382 28.8031 5.55714L28.3374 5.29428C27.9996 5.89265 27.835 6.5809 27.835 7.35064H28.3697ZM28.8024 5.55835C29.0997 5.03793 29.502 4.63624 30.0117 4.3485L29.7488 3.88286C29.1535 4.21895 28.6824 4.69061 28.3381 5.29306L28.8024 5.55835ZM30.0145 4.34688C30.5212 4.05269 31.1109 3.9018 31.7918 3.9018V3.3671C31.0291 3.3671 30.3444 3.53703 29.746 3.88448L30.0145 4.34688ZM31.7918 3.9018C32.4632 3.9018 33.0486 4.0524 33.5558 4.34688L33.8243 3.88448C33.2264 3.53732 32.5463 3.3671 31.7918 3.3671V3.9018ZM33.5586 4.3485C34.0676 4.63586 34.4647 5.03665 34.753 5.55554L35.2204 5.29587C34.8848 4.69189 34.4175 4.21933 33.8215 3.88286L33.5586 4.3485ZM34.7555 5.55995C35.0494 6.06613 35.2006 6.66015 35.2006 7.35064H35.7353C35.7353 6.57961 35.5656 5.89034 35.2179 5.29146L34.7555 5.55995ZM35.2006 7.35064C35.2006 8.03279 35.0536 8.62874 34.7663 9.14574L35.2338 9.40542C35.5704 8.79954 35.7353 8.1122 35.7353 7.35064H35.2006ZM34.7672 9.14415C34.4789 9.65494 34.0808 10.0573 33.5692 10.3544L33.8376 10.8168C34.431 10.4723 34.8974 10.0013 35.2329 9.40701L34.7672 9.14415ZM33.572 10.3528C33.0648 10.6391 32.4741 10.7861 31.7918 10.7861V11.3208C32.5533 11.3208 33.2369 11.1559 33.8348 10.8184L33.572 10.3528ZM31.7918 10.1177C32.298 10.1177 32.7565 10.0004 33.1592 9.75882L32.8841 9.30031C32.5738 9.48648 32.2125 9.58303 31.7918 9.58303V10.1177ZM33.1592 9.75882C33.5585 9.51922 33.8688 9.18842 34.0873 8.77135L33.6136 8.52325C33.44 8.85477 33.1977 9.11214 32.8841 9.30031L33.1592 9.75882ZM34.0849 8.77571C34.3145 8.35654 34.4252 7.87894 34.4252 7.35064H33.8905C33.8905 7.80264 33.7963 8.18947 33.6159 8.51889L34.0849 8.77571ZM34.4252 7.35064C34.4252 6.82235 34.3145 6.34474 34.0849 5.92557L33.6159 6.1824C33.7963 6.51181 33.8905 6.89865 33.8905 7.35064H34.4252ZM34.0885 5.93221C33.8705 5.50615 33.5601 5.16965 33.1592 4.9291L32.8841 5.38761C33.1961 5.57482 33.4383 5.83541 33.6124 6.17576L34.0885 5.93221ZM33.1592 4.9291C32.7565 4.68751 32.298 4.57018 31.7918 4.57018V5.10488C32.2125 5.10488 32.5738 5.20144 32.8841 5.38761L33.1592 4.9291ZM31.7918 4.57018C31.2857 4.57018 30.8271 4.68751 30.4245 4.9291L30.6996 5.38761C31.0098 5.20144 31.3712 5.10488 31.7918 5.10488V4.57018ZM30.4245 4.9291C30.0246 5.16901 29.7108 5.50407 29.4841 5.92789L29.9556 6.18008C30.1388 5.83749 30.3865 5.57546 30.6996 5.38761L30.4245 4.9291ZM29.4854 5.92557C29.2558 6.34474 29.145 6.82235 29.145 7.35064H29.6797C29.6797 6.89865 29.774 6.51181 29.9543 6.1824L29.4854 5.92557ZM29.145 7.35064C29.145 7.87894 29.2558 8.35654 29.4854 8.77571L29.9543 8.51889C29.774 8.18947 29.6797 7.80264 29.6797 7.35064H29.145ZM29.4854 8.77571C29.7125 9.19047 30.0262 9.51985 30.4245 9.75882L30.6996 9.30031C30.3849 9.11151 30.1372 8.85272 29.9543 8.51889L29.4854 8.77571ZM30.4245 9.75882C30.8271 10.0004 31.2857 10.1177 31.7918 10.1177V9.58303C31.3712 9.58303 31.0098 9.48648 30.6996 9.30031L30.4245 9.75882ZM39.4355 4.61028H39.1681V5.333L39.6385 4.78427L39.4355 4.61028ZM40.4113 3.87506L40.3007 3.63167L40.2986 3.63265L40.4113 3.87506ZM42.871 3.87506L42.7191 4.09532L42.7279 4.10093L42.871 3.87506ZM43.1784 4.48997L42.9196 4.42287L42.9183 4.42805L43.1784 4.48997ZM42.9111 4.86427L43.0104 5.1125L43.0173 5.10971L43.0241 5.10654L42.9111 4.86427ZM42.4432 4.891L42.39 5.15301L42.3908 5.15316L42.4432 4.891ZM39.8232 5.41234L39.6341 5.22327L39.6309 5.22652L39.8232 5.41234ZM38.7671 10.7326C38.5855 10.7326 38.4984 10.6874 38.4549 10.6439C38.4113 10.6003 38.3661 10.5132 38.3661 10.3316H37.8314C37.8314 10.5956 37.8976 10.8427 38.0768 11.022C38.256 11.2012 38.5031 11.2674 38.7671 11.2674V10.7326ZM38.3661 10.3316V4.3563H37.8314V10.3316H38.3661ZM38.3661 4.3563C38.3661 4.17472 38.4113 4.08763 38.4549 4.04406C38.4984 4.00048 38.5855 3.95527 38.7671 3.95527V3.42056C38.5031 3.42056 38.256 3.48675 38.0768 3.66597C37.8976 3.84518 37.8314 4.09229 37.8314 4.3563H38.3661ZM38.7671 3.95527C38.9487 3.95527 39.0358 4.00048 39.0793 4.04406C39.1229 4.08763 39.1681 4.17472 39.1681 4.3563H39.7028C39.7028 4.09229 39.6367 3.84518 39.4574 3.66597C39.2782 3.48675 39.0311 3.42056 38.7671 3.42056V3.95527ZM39.1681 4.3563V4.61028H39.7028V4.3563H39.1681ZM39.6385 4.78427C39.8803 4.5022 40.1745 4.28009 40.5241 4.11748L40.2986 3.63265C39.8818 3.82651 39.5254 4.09455 39.2325 4.43629L39.6385 4.78427ZM40.522 4.11845C40.8774 3.95688 41.2628 3.87506 41.6812 3.87506V3.34036C41.1907 3.34036 40.7295 3.43678 40.3007 3.63168L40.522 4.11845ZM41.6812 3.87506C42.1958 3.87506 42.527 3.96259 42.7192 4.09515L43.0228 3.65498C42.6981 3.43107 42.2361 3.34036 41.6812 3.34036V3.87506ZM42.7279 4.10093C42.8355 4.16906 42.8865 4.22991 42.9092 4.27535C42.929 4.31495 42.9361 4.3594 42.9196 4.42288L43.4372 4.55707C43.4831 4.37993 43.4702 4.20158 43.3875 4.03622C43.3077 3.87668 43.1738 3.75039 43.014 3.6492L42.7279 4.10093ZM42.9183 4.42805C42.8865 4.56193 42.8364 4.60409 42.798 4.622L43.0241 5.10654C43.2531 4.99968 43.3813 4.79232 43.4385 4.5519L42.9183 4.42805ZM42.8118 4.61604C42.7375 4.64576 42.6363 4.65698 42.4956 4.62884L42.3908 5.15316C42.6066 5.19632 42.8173 5.18971 43.0104 5.1125L42.8118 4.61604ZM42.4964 4.629C41.8987 4.50759 41.348 4.49541 40.8496 4.60292L40.9623 5.12561C41.3728 5.03706 41.847 5.04271 42.39 5.153L42.4964 4.629ZM40.8496 4.60292C40.3564 4.70929 39.9454 4.91202 39.6341 5.22329L40.0122 5.60139C40.2356 5.37795 40.5465 5.2153 40.9623 5.12561L40.8496 4.60292ZM39.6309 5.22652C39.3192 5.54904 39.1681 5.95676 39.1681 6.42828H39.7028C39.7028 6.07992 39.8103 5.81034 40.0154 5.59815L39.6309 5.22652ZM39.1681 6.42828V10.3316H39.7028V6.42828H39.1681ZM39.1681 10.3316C39.1681 10.5132 39.1229 10.6003 39.0793 10.6439C39.0358 10.6874 38.9487 10.7326 38.7671 10.7326V11.2674C39.0311 11.2674 39.2782 11.2012 39.4574 11.022C39.6367 10.8427 39.7028 10.5956 39.7028 10.3316H39.1681ZM46.1232 10.5856L45.9921 10.8187L45.9964 10.821L46.1232 10.5856ZM44.773 9.27558L44.5409 9.40825L44.5435 9.41258L44.773 9.27558ZM44.7463 5.42571L44.5126 5.29587L44.5119 5.29716L44.7463 5.42571ZM46.0296 4.11568L46.1626 4.34759L46.1655 4.34593L46.0296 4.11568ZM49.6923 4.10231L49.5506 4.32905L49.5536 4.33084L49.6923 4.10231ZM50.8286 5.37224L50.5871 5.48705L50.5894 5.4918L50.8286 5.37224ZM51.0558 7.6581L51.2373 7.85471L51.2449 7.84714L51.0558 7.6581ZM45.535 7.81851V7.55116H45.2216L45.271 7.8606L45.535 7.81851ZM46.3771 9.32905L46.2044 9.53319L46.2087 9.53666L46.3771 9.32905ZM48.9437 9.75681L49.0306 10.0097L49.0351 10.0081L48.9437 9.75681ZM49.6522 9.39589L49.4941 9.18028L49.4918 9.18201L49.6522 9.39589ZM50.08 9.24884V9.5162H50.0874L50.0948 9.51578L50.08 9.24884ZM50.4944 9.38252L50.6713 9.18201L50.6671 9.17843L50.4944 9.38252ZM50.735 9.82365L51.0019 9.80882L51.0019 9.80882L50.735 9.82365ZM50.5211 10.238L50.3587 10.0256L50.3548 10.0287L50.5211 10.238ZM49.3849 10.8262L49.3003 10.5726L49.2988 10.5731L49.3849 10.8262ZM45.5484 6.7491L45.2854 6.70056L45.2271 7.01645H45.5484V6.7491ZM49.9998 6.7491V7.01645H50.3073L50.2645 6.71187L49.9998 6.7491ZM49.3448 5.3455L49.1511 5.5299L49.1534 5.5322L49.3448 5.3455ZM48.1016 10.7861C47.4006 10.7861 46.7856 10.6386 46.2499 10.3502L45.9964 10.821C46.6193 11.1564 47.3232 11.3208 48.1016 11.3208V10.7861ZM46.2542 10.3526C45.7238 10.0542 45.308 9.65034 45.0026 9.13857L44.5435 9.41258C44.8975 10.0059 45.3818 10.4753 45.9921 10.8186L46.2542 10.3526ZM45.0052 9.14293C44.71 8.62644 44.5591 8.0315 44.5591 7.35064H44.0244C44.0244 8.11349 44.1944 8.80184 44.5409 9.40822L45.0052 9.14293ZM44.5591 7.35064C44.5591 6.65759 44.7025 6.0615 44.9807 5.55426L44.5119 5.29716C44.184 5.89497 44.0244 6.58217 44.0244 7.35064H44.5591ZM44.98 5.55554C45.2689 5.03554 45.6623 4.63464 46.1626 4.34757L45.8965 3.88379C45.3096 4.22054 44.8475 4.69299 44.5126 5.29587L44.98 5.55554ZM46.1655 4.34593C46.6633 4.05212 47.2392 3.9018 47.9011 3.9018V3.3671C47.1549 3.3671 46.4831 3.5376 45.8937 3.88543L46.1655 4.34593ZM47.9011 3.9018C48.5553 3.9018 49.1012 4.04816 49.5506 4.32903L49.834 3.8756C49.2853 3.53265 48.6371 3.3671 47.9011 3.3671V3.9018ZM49.5536 4.33084C50.0066 4.60589 50.3503 4.98899 50.5871 5.48703L51.07 5.25745C50.7899 4.66825 50.3762 4.20474 49.8311 3.87378L49.5536 4.33084ZM50.5894 5.4918C50.8352 5.98333 50.9622 6.56047 50.9622 7.23033H51.4969C51.4969 6.49214 51.3566 5.83055 51.0677 5.25267L50.5894 5.4918ZM50.9622 7.23033C50.9622 7.3314 50.9306 7.40518 50.8668 7.46905L51.2449 7.84714C51.4127 7.67931 51.4969 7.46791 51.4969 7.23033H50.9622ZM50.8745 7.46165C50.8145 7.51698 50.7351 7.55116 50.6147 7.55116V8.08586C50.8507 8.08586 51.0654 8.0131 51.2371 7.85455L50.8745 7.46165ZM50.6147 7.55116H45.535V8.08586H50.6147V7.55116ZM45.271 7.8606C45.3788 8.53692 45.6908 9.09854 46.2044 9.53314L46.5498 9.12496C46.1366 8.77532 45.8872 8.32992 45.799 7.77642L45.271 7.8606ZM46.2087 9.53666C46.7341 9.96293 47.3703 10.1712 48.1016 10.1712V9.6365C47.4782 9.6365 46.9648 9.46157 46.5456 9.12143L46.2087 9.53666ZM48.1016 10.1712C48.41 10.1712 48.72 10.1164 49.0306 10.0096L48.8568 9.50398C48.5971 9.59327 48.3457 9.6365 48.1016 9.6365V10.1712ZM49.0351 10.0081C49.3447 9.89547 49.6067 9.76418 49.8126 9.60977L49.4918 9.18201C49.3412 9.29495 49.1309 9.40427 48.8524 9.50556L49.0351 10.0081ZM49.8103 9.61148C49.9027 9.54374 49.9907 9.5162 50.08 9.5162V8.98149C49.8662 8.98149 49.6691 9.05197 49.4941 9.18029L49.8103 9.61148ZM50.0948 9.51578C50.1914 9.51042 50.2613 9.5355 50.3217 9.58661L50.6671 9.17843C50.4958 9.03348 50.2894 8.96944 50.0651 8.9819L50.0948 9.51578ZM50.3175 9.58299C50.4299 9.68221 50.4641 9.76685 50.468 9.83848L51.0019 9.80882C50.9881 9.55963 50.8618 9.35018 50.6713 9.18205L50.3175 9.58299ZM50.468 9.83848C50.4711 9.89309 50.455 9.95203 50.3587 10.0257L50.6835 10.4504C50.8902 10.2924 51.0167 10.075 51.0019 9.80882L50.468 9.83848ZM50.3548 10.0287C50.0813 10.2459 49.732 10.4287 49.3003 10.5726L49.4694 11.0799C49.9467 10.9207 50.3549 10.7114 50.6874 10.4474L50.3548 10.0287ZM49.2988 10.5731C48.8769 10.7165 48.4783 10.7861 48.1016 10.7861V11.3208C48.5448 11.3208 49.0016 11.2389 49.4709 11.0793L49.2988 10.5731ZM47.9011 4.51671C47.1901 4.51671 46.5906 4.71504 46.1302 5.13451L46.4904 5.52976C46.832 5.21846 47.2931 5.05141 47.9011 5.05141V4.51671ZM46.1302 5.13451C45.6823 5.54264 45.402 6.06911 45.2854 6.70056L45.8113 6.79764C45.9086 6.27056 46.1363 5.85239 46.4904 5.52976L46.1302 5.13451ZM45.5484 7.01645H49.9998V6.48175H45.5484V7.01645ZM50.2645 6.71187C50.1774 6.09271 49.9374 5.57007 49.5361 5.1588L49.1534 5.5322C49.4651 5.8517 49.6617 6.26478 49.735 6.78633L50.2645 6.71187ZM49.5384 5.16112C49.1227 4.72468 48.5665 4.51671 47.9011 4.51671V5.05141C48.4476 5.05141 48.8539 5.21774 49.1512 5.52988L49.5384 5.16112Z" fill="white"/>
<path d="M8.39626 10.999V7.41645L4.41138 11.4H7.99523C8.21671 11.4 8.39626 11.2204 8.39626 10.999Z" fill="white" stroke="white" stroke-width="0.133676"/>
<ellipse cx="31.8362" cy="7.40308" rx="1.13625" ry="1.20308" fill="white"/>
</svg>
