<svg width="17" height="17" viewBox="0 0 17 17" fill="none" xmlns="http://www.w3.org/2000/svg">
<path d="M8.5 10.625C9.6736 10.625 10.625 9.6736 10.625 8.5C10.625 7.32639 9.6736 6.375 8.5 6.375C7.32639 6.375 6.375 7.32639 6.375 8.5C6.375 9.6736 7.32639 10.625 8.5 10.625Z" stroke="#DEDEDE" stroke-width="1.41667" stroke-linecap="round" stroke-linejoin="round"/>
<path d="M13.7418 10.6249C13.6475 10.8386 13.6194 11.0756 13.6611 11.3053C13.7027 11.5351 13.8123 11.7471 13.9756 11.9141L14.0181 11.9566C14.1498 12.0882 14.2543 12.2444 14.3256 12.4164C14.3969 12.5884 14.4336 12.7727 14.4336 12.9589C14.4336 13.145 14.3969 13.3294 14.3256 13.5014C14.2543 13.6734 14.1498 13.8296 14.0181 13.9612C13.8865 14.0929 13.7303 14.1974 13.5583 14.2687C13.3863 14.34 13.202 14.3767 13.0158 14.3767C12.8296 14.3767 12.6453 14.34 12.4733 14.2687C12.3013 14.1974 12.1451 14.0929 12.0135 13.9612L11.971 13.9187C11.8041 13.7554 11.592 13.6458 11.3622 13.6042C11.1325 13.5625 10.8955 13.5906 10.6818 13.6849C10.4723 13.7747 10.2937 13.9238 10.1678 14.1138C10.0419 14.3039 9.9744 14.5266 9.9735 14.7545V14.8749C9.9735 15.2506 9.82424 15.611 9.55856 15.8767C9.29289 16.1423 8.93255 16.2916 8.55683 16.2916C8.18111 16.2916 7.82077 16.1423 7.55509 15.8767C7.28942 15.611 7.14016 15.2506 7.14016 14.8749V14.8112C7.13468 14.5767 7.05879 14.3493 6.92236 14.1586C6.78593 13.9678 6.59527 13.8225 6.37516 13.7416C6.16152 13.6473 5.92453 13.6192 5.69475 13.6608C5.46497 13.7025 5.25294 13.812 5.086 13.9753L5.0435 14.0178C4.91193 14.1496 4.75568 14.254 4.5837 14.3253C4.41172 14.3966 4.22738 14.4333 4.0412 14.4333C3.85503 14.4333 3.67069 14.3966 3.49871 14.3253C3.32672 14.254 3.17048 14.1496 3.03891 14.0178C2.9072 13.8863 2.8027 13.73 2.73141 13.558C2.66012 13.3861 2.62342 13.2017 2.62342 13.0155C2.62342 12.8294 2.66012 12.645 2.73141 12.473C2.8027 12.3011 2.9072 12.1448 3.03891 12.0133L3.08141 11.9708C3.24471 11.8038 3.35425 11.5918 3.39592 11.362C3.43758 11.1322 3.40945 10.8952 3.31516 10.6816C3.22537 10.4721 3.07628 10.2934 2.88624 10.1676C2.6962 10.0417 2.47351 9.97416 2.24558 9.97325H2.12516C1.74944 9.97325 1.3891 9.824 1.12343 9.55832C0.857752 9.29264 0.708496 8.93231 0.708496 8.55659C0.708496 8.18086 0.857752 7.82053 1.12343 7.55485C1.3891 7.28917 1.74944 7.13992 2.12516 7.13992H2.18891C2.42337 7.13443 2.65075 7.05854 2.8415 6.92211C3.03225 6.78568 3.17754 6.59502 3.2585 6.37492C3.35279 6.16127 3.38091 5.92428 3.33925 5.6945C3.29759 5.46472 3.18804 5.25269 3.02475 5.08575L2.98225 5.04325C2.85053 4.91168 2.74604 4.75544 2.67474 4.58346C2.60345 4.41148 2.56676 4.22713 2.56676 4.04096C2.56676 3.85479 2.60345 3.67044 2.67474 3.49846C2.74604 3.32648 2.85053 3.17024 2.98225 3.03867C3.11382 2.90695 3.27006 2.80246 3.44204 2.73117C3.61402 2.65987 3.79837 2.62318 3.98454 2.62318C4.17071 2.62318 4.35506 2.65987 4.52704 2.73117C4.69902 2.80246 4.85526 2.90695 4.98683 3.03867L5.02933 3.08117C5.19627 3.24447 5.4083 3.35401 5.63808 3.39567C5.86786 3.43734 6.10485 3.40921 6.3185 3.31492H6.37516C6.58467 3.22513 6.76334 3.07604 6.88919 2.886C7.01505 2.69596 7.08259 2.47327 7.0835 2.24534V2.12492C7.0835 1.7492 7.23275 1.38886 7.49843 1.12318C7.7641 0.857507 8.12444 0.708252 8.50016 0.708252C8.87589 0.708252 9.23622 0.857507 9.5019 1.12318C9.76757 1.38886 9.91683 1.7492 9.91683 2.12492V2.18867C9.91774 2.4166 9.98528 2.63929 10.1111 2.82933C10.237 3.01937 10.4157 3.16846 10.6252 3.25825C10.8388 3.35254 11.0758 3.38067 11.3056 3.33901C11.5354 3.29734 11.7474 3.1878 11.9143 3.0245L11.9568 2.982C12.0884 2.85029 12.2446 2.74579 12.4166 2.6745C12.5886 2.60321 12.7729 2.56651 12.9591 2.56651C13.1453 2.56651 13.3296 2.60321 13.5016 2.6745C13.6736 2.74579 13.8298 2.85029 13.9614 2.982C14.0931 3.11357 14.1976 3.26981 14.2689 3.44179C14.3402 3.61378 14.3769 3.79812 14.3769 3.98429C14.3769 4.17047 14.3402 4.35481 14.2689 4.52679C14.1976 4.69877 14.0931 4.85501 13.9614 4.98659L13.9189 5.02909C13.7556 5.19602 13.6461 5.40805 13.6044 5.63783C13.5627 5.86761 13.5909 6.10461 13.6852 6.31825V6.37492C13.775 6.58442 13.924 6.7631 14.1141 6.88895C14.3041 7.0148 14.5268 7.08234 14.7547 7.08325H14.8752C15.2509 7.08325 15.6112 7.23251 15.8769 7.49818C16.1426 7.76386 16.2918 8.1242 16.2918 8.49992C16.2918 8.87564 16.1426 9.23598 15.8769 9.50165C15.6112 9.76733 15.2509 9.91659 14.8752 9.91659H14.8114C14.5835 9.91749 14.3608 9.98503 14.1707 10.1109C13.9807 10.2367 13.8316 10.4154 13.7418 10.6249V10.6249Z" stroke="#DEDEDE" stroke-width="1.41667" stroke-linecap="round" stroke-linejoin="round"/>
</svg>
